<svg width="89" height="89" viewBox="0 0 89 89" fill="none" xmlns="http://www.w3.org/2000/svg">
<path fill-rule="evenodd" clip-rule="evenodd" d="M85.9049 0.316933L68.8079 5.78607L17.3474 57.2465L31.4895 71.3886L82.95 19.9282L83.2812 18.8926L83.2843 18.8831L88.4191 2.8312C88.9145 1.28271 87.4534 -0.178412 85.9049 0.316933ZM39.6784 37.0368L39.647 34.947L37.9316 36.6623L39.6784 37.0368ZM51.3113 23.2826L51.3532 26.0691L48.9098 25.6841L51.3113 23.2826Z" fill="#fff"/>
<path d="M10.3182 52.9619C9.53719 52.1809 8.27086 52.1809 7.48982 52.9619L4.82913 55.6226C4.04808 56.4037 4.04808 57.67 4.82913 58.451L13.3144 66.9363L6.52685 73.7239L6.20444 73.4015C4.87814 72.0752 2.72777 72.0752 1.40147 73.4015C0.0751617 74.7278 0.0751624 76.8782 1.40147 78.2045L10.7406 87.5436C12.0669 88.8699 14.2173 88.8699 15.5436 87.5436C16.8699 86.2173 16.8699 84.067 15.5436 82.7406L15.0121 82.2092L21.7997 75.4216L30.285 83.9069C31.066 84.6879 32.3324 84.6879 33.1134 83.9069L35.7741 81.2462C36.5551 80.4652 36.5551 79.1988 35.7741 78.4178L10.3182 52.9619Z" fill="#fff"/>
</svg>
